<?xml version="1.0" encoding="UTF-8" standalone="no"?>
<!DOCTYPE svg PUBLIC "-//W3C//DTD SVG 1.1//EN" "http://www.w3.org/Graphics/SVG/1.1/DTD/svg11.dtd">
<svg width="100%" height="100%" viewBox="0 0 1200 1200" version="1.1" xmlns="http://www.w3.org/2000/svg" xmlns:xlink="http://www.w3.org/1999/xlink" xml:space="preserve" xmlns:serif="http://www.serif.com/" style="fill-rule:evenodd;clip-rule:evenodd;stroke-linejoin:round;stroke-miterlimit:2;">
    <g id="Logo-Worldline---2021" serif:id="Logo Worldline - 2021" transform="matrix(1.33333,0,0,-1.33333,-94.7469,1335.01)">
        <g id="g3226" transform="matrix(3.32152,0,0,3.32152,-657.682,-1964.9)">
            <g id="path3056" transform="matrix(0.75,0,0,-0.75,0,841.92)">
                <path d="M512.92,50.707L512.92,77.693L518.947,77.693L518.947,69.414C519.081,69.374 523.373,69.413 523.506,69.373L529.174,77.693L536.174,77.693L529.307,68.119C530.907,67.452 532.147,66.481 533.014,65.187C534.014,63.827 534.44,61.72 534.373,59.693C534.373,57.693 533.906,56.04 533.039,54.707C530.946,51.64 527.346,50.747 523.439,50.707L512.92,50.707ZM518.947,55.973L523.773,55.973C524.64,55.973 525.412,55.974 526.039,56.334C526.679,56.694 527.174,57.2 527.547,57.826C528.28,59.066 528.28,61.093 527.547,62.359C526.747,63.719 525.413,64.387 523.773,64.387L518.947,64.387L518.947,55.973Z" style="fill:rgb(70,190,170);"/>
            </g>
            <g id="path3052" transform="matrix(0.75,0,0,-0.75,0,841.92)">
                <path d="M495.516,50.107C493.261,50.107 490.999,50.507 489.279,51.307C485.919,52.8 483.359,55.533 482.119,58.893C481.386,60.786 481.16,62.693 481.227,64.613C481.253,69.747 484.361,74.906 489.188,77.133C492.614,78.826 498.414,78.826 501.854,77.133C506.72,74.906 509.787,69.747 509.854,64.613C509.987,60.96 508.746,57.227 506.213,54.467C505.013,53.173 503.521,52.107 501.721,51.307C500.021,50.507 497.771,50.107 495.516,50.107ZM495.547,55.6C500.014,55.6 503.586,58.693 503.586,64.293C503.586,68.946 500.587,72.934 495.547,72.934C490.454,72.934 487.52,68.946 487.52,64.293C487.52,59.466 490.254,55.6 495.547,55.6Z" style="fill:rgb(70,190,170);"/>
            </g>
            <g id="path3048" transform="matrix(0.75,0,0,-0.75,0,841.92)">
                <path d="M557.732,50.707L557.732,77.826L567.666,77.826C570.106,77.826 572.227,77.467 574.027,76.707C577.427,75.334 580.027,72.746 581.334,69.439C582.027,67.613 582.267,65.746 582.227,63.826C582.227,60.386 581.026,57.093 578.6,54.666C575.733,51.879 571.973,50.68 567.666,50.707L557.732,50.707ZM563.773,55.973L567.801,55.973C569.067,55.973 570.199,56.133 571.199,56.467C573.199,57.16 574.626,58.561 575.359,60.494C576.133,62.587 576.159,65.747 575.359,67.854C574.626,69.84 573.199,71.24 571.199,72.014C570.199,72.374 569.067,72.574 567.801,72.574L563.773,72.574L563.773,55.973Z" style="fill:rgb(70,190,170);"/>
            </g>
            <path id="path3046" d="M352.69,787.61L352.37,787.61L349.04,803.19L344.34,803.19L341.4,787.61L340.95,787.61L336.92,803.74L332.3,803.74L337.25,783.65L344.19,783.65L346.67,795.88L349.34,783.65L356.42,783.65L360.82,803.74L356.17,803.74L352.69,787.61Z" style="fill:rgb(70,190,170);"/>
            <path id="path3044" d="M473.39,785.12L473.06,785.12L461.42,803.74L458.47,803.74L458.47,783.65L460.09,783.65L460.09,802.27L460.49,802.27L472.14,783.65L475.01,783.65L475.01,803.74L473.39,803.74L473.39,785.12Z" style="fill:rgb(70,190,170);"/>
            <path id="path3042" d="M480.49,785.12L480.49,793.23L489.36,793.23L489.36,794.65L480.49,794.65L480.49,802.27L490.04,802.27L490.04,803.74L478.84,803.74L478.84,783.65L490.36,783.65L490.36,785.12L480.49,785.12Z" style="fill:rgb(70,190,170);"/>
            <rect id="path3040" x="452.44" y="783.65" width="1.63" height="20.09" style="fill:rgb(70,190,170);"/>
            <path id="path3038" d="M441.4,803.74L439.77,803.74L439.77,783.65L450.57,783.65L450.57,785.12L441.4,785.12L441.4,803.74Z" style="fill:rgb(70,190,170);"/>
            <path id="path3036" d="M408.55,803.74L404.03,803.74L404.03,783.65L416.43,783.65L416.43,787.61L408.55,787.61L408.55,803.74Z" style="fill:rgb(70,190,170);"/>
        </g>
        <g id="g3235" transform="matrix(12.5568,0,0,12.5568,-5819.28,-9098.04)">
            <path id="path3034" d="M540.5,787.04C540,786.02 539.6,784.89 539.3,783.65L540.77,783.65C540.77,784.82 540.7,785.94 540.5,787.04Z" style="fill:rgb(70,190,170);"/>
            <path id="path3032" d="M533.78,783.65L535.25,783.65C535.93,787.44 537.5,790.19 539,792.11C538.8,792.58 538.55,793.06 538.3,793.53C536.2,791.08 534.5,787.79 533.78,783.65Z" style="fill:rgb(70,190,170);"/>
            <path id="path3030" d="M536.03,796.9C535.73,797.27 535.4,797.65 535.08,798C531.85,794.7 529.15,789.91 528.3,783.65L529.78,783.65C530.63,789.74 533.28,793.88 535.55,796.4C535.73,796.58 535.88,796.75 536.03,796.9Z" style="fill:rgb(70,190,170);"/>
            <path id="path3028" d="M532.1,800.59C531.7,800.89 531.3,801.17 530.88,801.42C530.68,801.22 530.5,801.02 530.3,800.82C527.88,798.12 525.13,794 523.68,788.19C523.23,790.53 522.6,792.81 521.8,794.95C523.38,798.47 525.35,801.22 527.15,803.24C526.68,803.41 526.18,803.59 525.68,803.74C524.1,801.92 522.48,799.62 521.05,796.77C520.05,799.15 518.8,801.34 517.38,803.34C517.13,803.66 516.9,803.99 516.65,804.29C515.55,804.14 514.46,803.86 513.41,803.54C515.93,800.62 517.98,796.95 519.38,792.76C518.85,791.28 518.4,789.69 518.05,787.99C517.08,792.48 515.31,796.63 512.83,800.04C512.21,800.92 511.53,801.74 510.83,802.49C509.91,802.07 509.01,801.54 508.16,800.97C512.13,796.95 514.93,790.78 515.73,783.65L518.88,783.65C519.1,786.07 519.53,788.29 520.1,790.31C520.65,788.19 521.05,785.97 521.28,783.65L524.3,783.65C525.2,791.43 528.53,796.7 531.38,799.84C531.63,800.12 531.85,800.37 532.1,800.59Z" style="fill:rgb(70,190,170);"/>
            <path id="path3026" d="M498.96,783.65L502.01,783.65C501.56,785.74 500.81,787.69 499.73,789.36C499.23,787.54 498.96,785.64 498.96,783.65Z" style="fill:rgb(70,190,170);"/>
            <path id="path3024" d="M502.38,795.13C501.81,794.25 501.28,793.31 500.83,792.33C502.66,790.09 503.98,787.09 504.58,783.65L507.63,783.65C507.06,787.34 505.73,790.73 503.73,793.46C503.31,794.05 502.86,794.6 502.38,795.13Z" style="fill:rgb(70,190,170);"/>
            <path id="path832" d="M508.28,796.75C510.91,793.13 512.61,788.59 513.21,783.65L510.18,783.65C509.41,789.24 507.13,794.08 503.98,797.22C504.63,798 505.33,798.7 506.08,799.37C506.86,798.57 507.61,797.72 508.28,796.75Z" style="fill:rgb(70,190,170);"/>
        </g>
        <g transform="matrix(0.75,-0.000506973,-0.000506973,-0.75,-328.019,2160.68)">
            <path d="M1520.32,807.538C2065.07,807.538 2507.34,1241.58 2507.34,1776.2C2507.34,2310.83 2065.07,2744.87 1520.32,2744.87C975.573,2744.87 533.306,2310.83 533.306,1776.2C533.306,1241.58 975.573,807.538 1520.32,807.538ZM1520.32,1096.87C1902.36,1096.87 2212.53,1401.27 2212.53,1776.2C2212.53,2151.14 1902.36,2455.54 1520.32,2455.54C1138.28,2455.54 828.114,2151.14 828.114,1776.2C828.114,1401.27 1138.28,1096.87 1520.32,1096.87Z" style="fill:url(#_Linear1);"/>
        </g>
    </g>
    <defs>
        <linearGradient id="_Linear1" x1="0" y1="0" x2="1" y2="0" gradientUnits="userSpaceOnUse" gradientTransform="matrix(1603.05,1436.01,-1436.01,1603.05,532.651,808.205)"><stop offset="0" style="stop-color:rgb(70,190,170);stop-opacity:1"/><stop offset="1" style="stop-color:rgb(255,237,99);stop-opacity:1"/></linearGradient>
    </defs>
</svg>
