<?xml version="1.0" encoding="UTF-8"?>
<svg id="Calque_2" data-name="Calque 2" xmlns="http://www.w3.org/2000/svg" viewBox="0 0 140 135">
  <defs>
    <style>
      .cls-1 {
        fill-rule: evenodd;
      }
    </style>
  </defs>
  <g id="Calque_1-2" data-name="Calque 1">
    <g>
      <path class="cls-1" d="m70,0v6h13v20c0,1.65,1.34,3,3,3s3-1.35,3-3V3c0-1.66-1.34-3-3-3h-16Zm0,86v6h25.76l-9.88,9.87c-1.17,1.18-1.17,3.08,0,4.25,1.17,1.17,3.07,1.17,4.24,0l15-15c1.17-1.17,1.17-3.07,0-4.25l-15-15c-1.17-1.17-3.07-1.17-4.24,0-1.17,1.18-1.17,3.08,0,4.25l9.88,9.88h-25.76Zm0-43v6h64v80h-64v6h67c1.66,0,3-1.35,3-3V46c0-1.66-1.34-3-3-3h-67Z"/>
      <path class="cls-1" d="m70,49v-6h-25.76l9.88-9.88c1.17-1.17,1.17-3.07,0-4.25-1.17-1.17-3.07-1.17-4.24,0l-15,15c-1.17,1.18-1.17,3.08,0,4.25l15,15c1.17,1.17,3.07,1.17,4.24,0,1.17-1.17,1.17-3.07,0-4.25l-9.88-9.87h25.76Zm0-49H3C1.34,0,0,1.34,0,3v86c0,1.65,1.34,3,3,3h67v-6H6V6h64V0Zm0,135v-6h-13v-20c0-1.66-1.34-3-3-3s-3,1.34-3,3v23c0,1.65,1.34,3,3,3h16Z"/>
    </g>
  </g>
</svg>