<?xml version="1.0" encoding="UTF-8"?>
<svg id="Calque_2" data-name="Calque 2" xmlns="http://www.w3.org/2000/svg" viewBox="0 0 148 148">
  <defs>
    <style>
      .cls-1 {
        fill-rule: evenodd;
      }
    </style>
  </defs>
  <g id="Calque_1-2" data-name="Calque 1">
    <g>
      <path class="cls-1" d="m130,6c6.62,0,12,5.38,12,12s-5.38,12-12,12-12-5.38-12-12,5.38-12,12-12Zm-8,107c4.97,0,9,4.03,9,9s-4.03,9-9,9-9-4.03-9-9,4.03-9,9-9Zm-48-69c6.94,0,13.34,2.36,18.43,6.33l22.5-22.5c-1.85-2.82-2.92-6.2-2.92-9.83,0-9.93,8.07-18,18-18s18,8.07,18,18-8.07,18-18,18c-4.14,0-7.96-1.4-11-3.76l-22.23,22.23c4.51,5.25,7.23,12.08,7.23,19.53s-2.54,13.81-6.78,18.98l16.51,16.51c2.37-1.57,5.21-2.49,8.27-2.49,8.28,0,15,6.72,15,15s-6.72,15-15,15-15-6.72-15-15c0-3.06.92-5.9,2.49-8.27l-16.51-16.51c-5.17,4.24-11.78,6.78-18.98,6.78v-6c13.25,0,24-10.75,24-24s-10.75-24-24-24v-6Z"/>
      <path class="cls-1" d="m26,17c4.97,0,9,4.03,9,9s-4.03,9-9,9-9-4.03-9-9,4.03-9,9-9Zm-8,101c6.62,0,12,5.38,12,12s-5.38,12-12,12-12-5.38-12-12,5.38-12,12-12Zm56-14c-7.2,0-13.81-2.54-18.98-6.78l-22.35,22.35c2.1,2.95,3.33,6.54,3.33,10.43,0,9.93-8.07,18-18,18S0,139.93,0,130s8.07-18,18-18c3.89,0,7.48,1.23,10.43,3.33l22.35-22.35c-4.23-5.17-6.78-11.78-6.78-18.98s2.62-14.02,6.98-19.23l-16.69-16.27c-2.38,1.58-5.23,2.5-8.29,2.5-8.28,0-15-6.72-15-15s6.72-15,15-15,15,6.72,15,15c0,3.05-.91,5.88-2.47,8.25l16.74,16.32c5.14-4.11,11.65-6.57,18.73-6.57v6c-13.25,0-24,10.75-24,24s10.75,24,24,24v6Z"/>
    </g>
  </g>
</svg>