<?xml version="1.0" encoding="UTF-8"?>
<svg id="Calque_2" data-name="Calque 2" xmlns="http://www.w3.org/2000/svg" viewBox="0 0 148 112">
  <defs>
    <style>
      .cls-1 {
        fill-rule: evenodd;
      }
    </style>
  </defs>
  <g id="Calque_1-2" data-name="Calque 1">
    <g>
      <path class="cls-1" d="m114,6c4.97,0,9,4.03,9,9s-4.03,9-9,9-9-4.03-9-9,4.03-9,9-9Zm-40,6v6h25.3c1.39,6.84,7.45,12,14.7,12s13.31-5.16,14.7-12h16.3c1.66,0,3-1.35,3-3s-1.34-3-3-3h-16.3c-1.39-6.85-7.45-12-14.7-12s-13.31,5.15-14.7,12h-25.3Zm0,41v6h71c1.66,0,3-1.35,3-3s-1.34-3-3-3h-71Zm15,35c4.97,0,9,4.03,9,9s-4.03,9-9,9-9-4.03-9-9,4.03-9,9-9Zm-15,6v6h.3c1.39,6.84,7.45,12,14.7,12s13.31-5.16,14.7-12h41.3c1.66,0,3-1.35,3-3s-1.34-3-3-3h-41.3c-1.39-6.85-7.45-12-14.7-12s-13.31,5.15-14.7,12h-.3Z"/>
      <path class="cls-1" d="m74,18v-6H3c-1.66,0-3,1.34-3,3s1.34,3,3,3h71Zm-40,29c4.97,0,9,4.03,9,9s-4.03,9-9,9-9-4.03-9-9,4.03-9,9-9Zm40,12v-6h-25.3c-1.39-6.85-7.45-12-14.7-12s-13.31,5.15-14.7,12H3c-1.66,0-3,1.34-3,3s1.34,3,3,3h16.3c1.39,6.84,7.45,12,14.7,12s13.31-5.16,14.7-12h25.3Zm0,41v-6H3c-1.66,0-3,1.34-3,3s1.34,3,3,3h71Z"/>
    </g>
  </g>
</svg>