<?xml version="1.0" encoding="UTF-8"?>
<svg id="Calque_2" data-name="Calque 2" xmlns="http://www.w3.org/2000/svg" viewBox="0 0 148.01 105.46">
  <defs>
    <style>
      .cls-1 {
        fill-rule: evenodd;
      }
    </style>
  </defs>
  <g id="Calque_1-2" data-name="Calque 1">
    <g>
      <path class="cls-1" d="m74,3.14c6.43-2.02,13.53-3.14,21-3.14,17.43,0,32.72,6.11,42.28,15.39,6.64,6.45,10.56,14.44,10.72,23.05.22,11.88-9.12,23.64-18.08,29.12l.92,13.54c.07,1.13-.49,2.21-1.46,2.78-.97.58-2.19.57-3.14-.04l-14.47-9.15c-2.12.43-6.75,1.37-11.13,1.9-1.47,2.18-3.21,4.25-5.2,6.18-5.48,5.3-12.86,9.57-21.44,12.25v-6.3c6.86-2.39,12.78-5.92,17.26-10.26,5.46-5.28,8.74-11.76,8.74-18.81s-3.28-13.52-8.74-18.8c-4.48-4.34-10.4-7.87-17.26-10.26v-6.3c8.58,2.68,15.96,6.95,21.44,12.25,6.68,6.47,10.56,14.48,10.56,23.11,0,3.6-.67,7.08-1.94,10.4,4.36-.71,8.1-1.53,8.31-1.53.57,0,1.13.16,1.61.47l10.47,6.62-.64-9.52c-.08-1.19.55-2.31,1.6-2.86,7.8-4.08,16.78-14.24,16.59-24.67-.13-7.07-3.45-13.57-8.9-18.87-8.6-8.35-22.42-13.69-38.1-13.69-7.53,0-14.67,1.23-21,3.42V3.14Z"/>
      <path class="cls-1" d="m74,3.14v6.28c-7.65,2.66-14.13,6.73-18.73,11.77,6.64.2,12.95,1.29,18.73,3.1v6.3c-6.33-2.21-13.46-3.44-21-3.44-15.68,0-29.5,5.35-38.1,13.7-5.45,5.29-8.77,11.8-8.9,18.86-.19,10.43,8.79,20.6,16.59,24.67,1.05.55,1.68,1.67,1.6,2.86l-.64,9.53,10.47-6.63c.48-.3,1.04-.46,1.61-.46.35,0,11.11,2.47,17.37,2.47,7.54,0,14.67-1.23,21-3.43v6.3c-6.43,2.01-13.53,3.13-21,3.13-5.28,0-13.67-1.68-16.77-2.31l-14.47,9.16c-.95.6-2.17.62-3.14.04-.97-.58-1.53-1.65-1.46-2.78l.92-13.54C9.12,83.24-.22,71.47,0,59.6c.16-8.61,4.08-16.6,10.72-23.06,8.54-8.29,21.65-14.05,36.78-15.18,5.51-8.06,14.92-14.59,26.5-18.22Z"/>
    </g>
  </g>
</svg>