<?xml version="1.0" encoding="UTF-8" standalone="no"?>
<!DOCTYPE svg PUBLIC "-//W3C//DTD SVG 1.1//EN" "http://www.w3.org/Graphics/SVG/1.1/DTD/svg11.dtd">
<svg width="100%" height="100%" viewBox="0 0 620 70" version="1.1" xmlns="http://www.w3.org/2000/svg" xmlns:xlink="http://www.w3.org/1999/xlink" xml:space="preserve" xmlns:serif="http://www.serif.com/" style="fill-rule:evenodd;clip-rule:evenodd;stroke-linejoin:round;stroke-miterlimit:2;">
    <g transform="matrix(1,0,0,1,-16,-291)">
        <path d="M526.2,310.1C528.4,312.4 530.6,314.9 532.5,317.7C540,328.3 544.9,341.5 546.7,355.9L538,355.9C535.8,339.6 529.2,325.6 520.2,316.3C522,314.1 524,312 526.2,310.1M515.5,322.5C513.8,325.1 512.3,327.8 511.1,330.6C516.3,337.1 520.1,345.9 521.9,355.9L530.7,355.9C529,345.2 525.2,335.3 519.5,327.3C518.2,325.6 516.9,324 515.5,322.5M505.7,355.9L514.5,355.9C513.2,349.8 511,344.2 508,339.3C506.4,344.5 505.7,350.1 505.7,355.9M601,306.5C599.9,305.7 598.7,304.9 597.5,304.1C597,304.7 596.4,305.3 595.9,305.9C588.9,313.8 581,325.8 576.8,342.7C575.5,335.9 573.7,329.3 571.4,323C576,312.7 581.6,304.7 586.8,298.8C585.4,298.3 584,297.8 582.5,297.4C578,302.7 573.3,309.4 569.3,317.7C566.4,310.8 562.8,304.4 558.7,298.6C558,297.7 557.3,296.7 556.6,295.8C553.4,296.3 550.3,297.1 547.3,298C554.5,306.4 560.4,317.2 564.5,329.4C563,333.7 561.7,338.3 560.7,343.3C557.9,330.2 552.7,318.2 545.6,308.2C543.8,305.6 541.9,303.3 539.9,301.1C537.2,302.4 534.6,303.9 532.2,305.6C543.6,317.3 551.7,335.3 554,356L563,356C563.7,349 564.9,342.5 566.6,336.7C568.2,342.9 569.3,349.3 570,356L578.7,356C581.3,333.3 590.8,318 599.1,308.8C599.7,307.9 600.3,307.2 601,306.5M612.4,317.3C611.5,316.2 610.6,315.1 609.6,314.1C600.3,323.7 592.6,337.6 590.1,355.9L594.3,355.9C596.8,338.2 604.4,326.1 611,318.8C611.5,318.2 611.9,317.8 612.4,317.3M605.9,355.9L610.1,355.9C612.1,344.9 616.6,336.9 620.9,331.3C620.3,329.9 619.6,328.5 618.9,327.1C612.9,334.3 607.9,343.9 605.9,355.9M625.2,346C623.8,349 622.6,352.2 621.7,355.8L625.9,355.8C626,352.5 625.8,349.2 625.2,346M245.5,297.4L232.5,297.4L232.5,355.9L268.2,355.9L268.2,344.4L245.5,344.4L245.5,297.4ZM340,297.4L335.3,297.4L335.3,355.9L366.4,355.9L366.4,351.6L340,351.6L340,297.4ZM371.8,355.9L376.5,355.9L376.5,297.4L371.8,297.4L371.8,355.9ZM452.5,351.6L452.5,328L478,328L478,323.8L452.4,323.8L452.4,301.6L480,301.6L480,297.3L447.8,297.3L447.8,355.8L480.9,355.8L480.9,351.5L452.5,351.5L452.5,351.6ZM432.1,351.6L431.1,351.6L397.6,297.4L389.1,297.4L389.1,355.9L393.8,355.9L393.8,301.7L394.9,301.7L428.4,355.9L436.7,355.9L436.7,297.4L432,297.4L432,351.6L432.1,351.6ZM84.7,344.3L83.7,344.3L74.2,299L60.7,299L52.2,344.3L50.9,344.3L39.3,297.4L26,297.4L40.3,355.9L60.2,355.9L67.4,320.3L75.1,355.9L95.4,355.9L108.1,297.4L94.7,297.4L84.7,344.3ZM311.6,334.4C313.3,329.8 313.2,322.9 311.6,318.3C310,314 306.9,311 302.6,309.5C300.4,308.8 298,308.4 295.2,308.4L286.5,308.4L286.5,344.7L295.2,344.7C297.9,344.7 300.4,344.3 302.6,343.5C306.9,341.8 310,338.7 311.6,334.4M318.5,305.6C323.8,310.9 326.3,318.1 326.3,325.6C326.4,329.8 325.9,333.9 324.4,337.9C321.6,345.1 316,350.8 308.7,353.8C304.8,355.4 300.2,356.2 295,356.2L273.5,356.2L273.5,296.9L295,296.9C304.3,296.9 312.4,299.5 318.5,305.6M139.3,345.5C150.2,345.5 156.6,336.8 156.6,326.6C156.6,314.4 148.9,307.7 139.3,307.7C127.9,307.7 122,316.1 122,326.6C121.9,336.8 128.3,345.5 139.3,345.5M152.6,298.3C156.5,300 159.7,302.3 162.3,305.2C167.8,311.2 170.5,319.4 170.1,327.4C170,338.6 163.3,349.9 152.9,354.7C145.5,358.4 133,358.4 125.6,354.7C115.1,349.9 108.5,338.6 108.4,327.4C108.3,323.1 108.8,319 110.3,314.9C113,307.5 118.5,301.6 125.8,298.3C133.2,294.8 145.3,294.8 152.6,298.3M208.4,322.4C210,319.7 210,315.2 208.4,312.6C207.6,311.2 206.5,310.1 205.1,309.3C203.7,308.5 202.1,308.5 200.2,308.5L189.8,308.5L189.8,326.9L200.2,326.9C203.8,326.8 206.7,325.4 208.4,322.4M220.2,328.6C218.3,331.4 215.6,333.5 212.2,334.9L227,355.8L211.9,355.8L199.6,337.7L189.8,337.7L189.8,355.8L176.8,355.8L176.8,296.9L199.5,296.9C207.9,297 215.7,299 220.2,305.7C222.1,308.6 223.1,312.2 223.1,316.6C223.3,321 222.4,325.6 220.2,328.6" style="fill:rgb(61,181,175);fill-rule:nonzero;"/>
    </g>
</svg>
